<svg xmlns="http://www.w3.org/2000/svg" width="192" height="192" viewBox="0 0 512 512" role="img" aria-label="FAM Pulverentnahme">
  <rect width="512" height="512" rx="104" fill="#15324a"/>
  <g fill="none" stroke="#ffffff" stroke-width="26" stroke-linecap="round" stroke-linejoin="round">
    <path d="M112 184v-48a24 24 0 0 1 24-24h48"/>
    <path d="M328 112h48a24 24 0 0 1 24 24v48"/>
    <path d="M400 328v48a24 24 0 0 1-24 24h-48"/>
    <path d="M184 400h-48a24 24 0 0 1-24-24v-48"/>
  </g>
  <g fill="#ffffff">
    <circle cx="214" cy="162" r="13"/>
    <circle cx="256" cy="144" r="15"/>
    <circle cx="298" cy="164" r="12"/>
    <rect x="184" y="194" width="144" height="30" rx="15"/>
    <path d="M198 240h116l-22 118a18 18 0 0 1-18 15h-36a18 18 0 0 1-18-15z"/>
  </g>
</svg>
